<svg xmlns="http://www.w3.org/2000/svg" viewBox="0 0 64 64" width="64" height="64">
  <defs>
    <linearGradient id="pd-g" x1="0" y1="0" x2="64" y2="64" gradientUnits="userSpaceOnUse">
      <stop offset="0" stop-color="#a855f7"/>
      <stop offset="1" stop-color="#ec4899"/>
    </linearGradient>
  </defs>
  <rect width="64" height="64" rx="14" fill="#faf6ef"/>
  <!-- unlit matrix grid (subtle) -->
  <g fill="#ece0ea">
    <circle cx="10" cy="10" r="1.4"/><circle cx="21" cy="10" r="1.4"/><circle cx="32" cy="10" r="1.4"/><circle cx="43" cy="10" r="1.4"/><circle cx="54" cy="10" r="1.4"/>
    <circle cx="10" cy="21" r="1.4"/><circle cx="21" cy="21" r="1.4"/><circle cx="32" cy="21" r="1.4"/><circle cx="43" cy="21" r="1.4"/><circle cx="54" cy="21" r="1.4"/>
    <circle cx="10" cy="32" r="1.4"/><circle cx="21" cy="32" r="1.4"/><circle cx="32" cy="32" r="1.4"/><circle cx="43" cy="32" r="1.4"/><circle cx="54" cy="32" r="1.4"/>
    <circle cx="10" cy="43" r="1.4"/><circle cx="21" cy="43" r="1.4"/><circle cx="32" cy="43" r="1.4"/><circle cx="43" cy="43" r="1.4"/><circle cx="54" cy="43" r="1.4"/>
    <circle cx="10" cy="54" r="1.4"/><circle cx="21" cy="54" r="1.4"/><circle cx="32" cy="54" r="1.4"/><circle cx="43" cy="54" r="1.4"/><circle cx="54" cy="54" r="1.4"/>
  </g>
  <!-- lit chevron dots (gradient) -->
  <g fill="url(#pd-g)">
    <circle cx="21" cy="10" r="4"/>
    <circle cx="32" cy="21" r="4"/>
    <circle cx="43" cy="32" r="4"/>
    <circle cx="32" cy="43" r="4"/>
    <circle cx="21" cy="54" r="4"/>
  </g>
</svg>
